<svg version="1.2" xmlns="http://www.w3.org/2000/svg" viewBox="0 0 745 335" width="745" height="335">
	<title>imas-removebg-preview</title>
	<style>
		.s0 { opacity: 1;fill: #c0b2c4 } 
		.s1 { opacity: .2;fill: #bcafbd } 
		.s2 { opacity: .9;fill: #b9acb8 } 
		.s3 { opacity: .6;fill: #bdb0bf } 
		.s4 { opacity: .5;fill: #bcafbe } 
	</style>
	<g id="Background">
		<path id="Path 0" fill-rule="evenodd" class="s0" d="m527.5 174.5c2.2 0.3 4.8 1.3 5.8 2.2 1 1 2.2 3.4 2.7 5.3 0.7 2.5 0.5 4.3-0.5 6.5-0.8 1.7-2.8 3.6-4.7 4.4-2.1 0.9-4.6 1.2-6.8 0.7-1.9-0.3-4.5-1.6-5.8-2.9-1.7-1.6-2.3-3.3-2.3-6.7 0-3.4 0.6-5 2.3-6.6 1.3-1.2 3-2.4 3.8-2.7 0.8-0.4 3.3-0.4 5.5-0.2zm-7.6 10.1c0.1 1.9 0.8 4.1 1.6 4.9 0.8 0.8 2.9 1.5 4.5 1.5q3 0 4.5-2.3c0.8-1.2 1.5-3.2 1.5-4.5 0-1.2-0.9-3.1-2-4.2-1.1-1.1-3.1-2-4.4-2-1.4 0-3.2 0.7-4.1 1.6-0.9 0.9-1.6 3-1.6 5z"/>
		<path id="Path 1" class="s1" d="m516.9 176.8c-1.3 1.6-1.3 1.6 0.4 0.2 1-0.8 1.8-1.6 1.7-1.8 0-0.1-0.2-0.2-0.4-0.2-0.2 0-1 0.8-1.7 1.7zm20.3 7.8c0 1.9 0.2 2.3 0.5 1 0.2-1.1 0.2-2.4-0.1-3-0.2-0.6-0.4 0.3-0.4 2zm-23.1 0c0 1.1 0.2 1.4 0.3 0.7 0.1-0.7 0.1-1.6-0.1-2-0.2-0.4-0.3 0.2-0.2 1.3zm19.8 7.2c-1.3 1.7-1.3 1.7 0.4 0.3 1-0.8 1.8-1.6 1.7-1.8 0-0.1-0.2-0.2-0.4-0.2-0.2 0-1 0.8-1.7 1.7zm-16.9-0.5c-0.1 0.2 0.7 1 1.7 1.8 1.6 1.4 1.7 1.3 0.8-0.3-0.6-0.9-1.4-1.7-1.8-1.7-0.4 0-0.7 0.1-0.7 0.2z"/>
		<path id="Path 2" class="s2" d="m515.1 184.5c0 1.1 0.2 1.4 0.3 0.7 0.1-0.7 0.1-1.6-0.1-2-0.2-0.4-0.3 0.2-0.2 1.3z"/>
		<path id="Path 3" class="s3" d="m526 173.7c0.8 0.2 1.7 0.2 1.9-0.1 0.2-0.3-0.4-0.6-1.5-0.5-1.4 0-1.5 0.2-0.4 0.6zm-8.1 3.1c-1.3 1.6-1.3 1.6 0.4 0.2 1-0.8 1.8-1.6 1.7-1.7 0-0.2-0.2-0.3-0.4-0.3-0.2 0-1 0.8-1.7 1.8zm-0.9 13.5c-0.1 0.1 0.7 0.9 1.7 1.7 1.6 1.4 1.7 1.3 0.8-0.2-0.6-1-1.4-1.8-1.8-1.8-0.4 0-0.7 0.1-0.7 0.3zm8.2 4.4c0.9 0.2 2.2 0.2 3 0 0.7-0.3-0.1-0.5-1.7-0.5-1.6 0-2.3 0.2-1.3 0.5z"/>
		<path id="Path 4" fill-rule="evenodd" class="s0" d="m326.4 163.3c0.7 0.2 1.2 5.8 1.4 15.8 0.1 8.8-0.2 15.8-0.8 16.4q-0.9 1-2.2-0.2c-0.8-0.8-1.8-0.9-2.8-0.3-0.8 0.6-3 1-4.7 1-1.8 0-4.7-0.8-6.3-1.8-1.7-0.9-3.5-3.1-4-4.7-0.6-1.7-1-4.1-0.9-5.4 0-1.2 1.6-3.8 3.5-5.7 2.9-2.9 3.9-3.3 7.2-3 2 0.2 4.6 0.6 5.7 0.8 1.8 0.3 2-0.4 2.4-6.5 0.3-4.4 0.8-6.7 1.5-6.4zm-15.6 22c0.1 1.5 0.7 3.6 1.2 4.7 0.7 1.5 2 2 4.8 2 2.1 0 4.3-0.6 5-1.3 0.7-0.6 1.2-3.1 1.2-5.5 0-3.2-0.5-4.4-2-5.2-1.1-0.6-3.1-1-4.4-1-1.2 0-3.1 0.8-4.1 1.8-1 1-1.8 3.1-1.7 4.5zm-83.4-20.7c0.6 0.1 2.3 0.5 3.8 0.8 1.5 0.4 2.8 1.3 2.8 2.1 0 1.2-1.1 1.4-6.2 0.9-5.2-0.5-6.5-0.3-7.6 1.1-0.7 0.9-1.3 2.4-1.3 3.3 0.1 0.9 0.5 2.3 0.9 2.9 0.4 0.7 3.2 2.2 6.2 3.4 3 1.1 6.3 2.8 7.3 3.7 1.1 1.1 1.8 3.1 1.7 5.4 0 3-0.7 4.4-3 6.3-2.3 1.9-4.2 2.5-7.7 2.5-2.7 0-5.7-0.5-6.7-1.2-1-0.7-1.6-1.9-1.3-2.6 0.5-0.8 1.3-0.9 2.7-0.2 1.1 0.6 3.6 1 5.5 1 2.2 0 4.3-0.8 5.5-2 1.1-1.1 2-2.6 2-3.3 0-0.6-0.5-1.9-1.2-2.8-0.7-0.9-3.7-2.4-6.5-3.3-3.4-1-6-2.6-7.3-4.4-1.2-1.5-2.1-3.5-2-4.5 0-0.9 0.6-2.8 1.3-4.2 0.6-1.4 2.3-3 3.7-3.5 1.4-0.5 3.3-1 4.4-1.2 1-0.2 2.3-0.3 3-0.2zm227.5-1.1l2.1 2c1.1 1.1 2.1 2.8 2 3.7 0 1 0.4 2.6 0.9 3.5 0.5 1 1.3 2.9 1.9 4.3 0.6 1.4 1.9 4.7 2.9 7.3 1 2.6 2 4.8 2.3 4.8 0.3 0 2.2-4.2 4.2-9.3 2-5.1 3.9-10.2 4.2-11.3 0.3-1.1 1.2-2.7 2.1-3.5 0.8-0.8 1.8-1.3 2-1 0.3 0.3-2.1 7.4-5.3 15.8-4.4 11.7-6.1 15.2-7.4 15.2-1.3 0-2.5-2.1-4.5-7.8-1.4-4.2-3.7-10.3-5-13.5-1.2-3.1-2.3-6.7-2.3-8zm30.4 0.8c0.6 0.2 1.2 1.4 1.4 2.6 0.1 1.4-0.3 2.1-1.3 2.1-0.8 0-1.7-0.4-2-1-0.2-0.5-0.2-1.7 0.1-2.5 0.3-0.9 1.1-1.4 1.8-1.2zm-187.4 0.7c0.6 0 1.4 0.7 1.8 1.6 0.4 0.9 0.2 2-0.5 2.7-1 1-1.5 1-2.5 0-0.7-0.6-0.9-1.9-0.5-2.7 0.4-0.9 1.1-1.6 1.7-1.6zm-45.7 10.1c0.9 0 3.4 0.8 5.5 1.8 2 1.1 4.3 3.1 5 4.5 0.7 1.5 1.2 3.9 1.3 5.4 0 1.5-0.9 4-2 5.5-1.2 1.5-3.8 3.3-5.8 3.9-3 0.9-4.5 0.9-7.2-0.2-1.9-0.8-4.2-2.6-5.3-4-1-1.3-1.8-3.9-1.8-5.7 0-1.8 0.5-4.2 1-5.3 0.6-1.1 2.5-2.8 4.3-3.9 1.8-1.1 4-2 5-2zm-5 6.8c-0.7 0.9-1.3 2.8-1.3 4.1 0 1.4 0.7 3.6 1.5 4.8q1.5 2.2 4.5 2.2c1.7 0 3.9-0.8 5-2 1.1-1.1 2-3.2 2-4.7 0.1-1.5-0.5-3.5-1.2-4.4-0.7-1-2.4-2-3.8-2.2-1.3-0.3-3.1-0.3-4 0-0.8 0.3-2 1.3-2.7 2.2zm33-6.8c0.9 0 2.9 0.5 4.2 1.2 1.4 0.7 3 2.3 3.5 3.5 0.6 1.2 1 5.4 1 9.2 0 5.6-0.3 7-1.5 7-1.1 0-1.5-1.3-1.5-6 0-3.3-0.4-7.1-1-8.5-0.5-1.3-1.8-2.7-2.7-3-1-0.3-3-0.2-4.5 0.3q-2.8 0.8-3.8 3.7c-0.6 1.7-1 5.4-1 8.3 0 2.9-0.4 5.2-1 5.2-0.5 0-1.2-1-1.5-2.2-0.3-1.2-0.4-5.6-0.3-9.8 0.3-7.1 0.4-7.4 2.6-7.2 1.3 0.1 3.1-0.2 4-0.7 1-0.6 2.5-1 3.5-1zm18.1 0.2c0.7 0.3 1.1 3.7 1.1 10.3 0 8.2-0.2 9.9-1.5 9.9-1.2 0-1.5-1.7-1.7-8.9-0.2-4.9 0-9.5 0.3-10.3 0.3-0.8 1.1-1.2 1.8-1zm47.1-0.3c1.9 0 4.4 1.1 6.5 2.9 3.1 2.6 3.5 3.5 3.5 7.5 0 3.4-0.6 5.1-2.5 7.1-1.3 1.4-4 2.9-6 3.2-2.2 0.4-4.6 0-6.7-1-2-1-3.9-3.1-4.8-5.2-1.1-2.6-1.2-4.3-0.5-7 0.7-2.2 2.2-4.2 4.3-5.4 1.8-1.1 4.6-2 6.2-2.1zm-6.2 8.1c-0.8 1.8-0.7 3.3 0.3 5.7 1.3 2.9 1.9 3.2 5.2 3.2 2.1 0 4.4-0.5 5-1.2 0.7-0.7 1.3-3.2 1.2-5.5 0-3.2-0.4-4.5-2-5.3-1.1-0.5-3-0.9-4.2-0.9-1.3 0-2.8 0.3-3.4 0.7-0.6 0.5-1.6 1.9-2.1 3.3zm29.9-8.1c1.8 0 4 0.7 4.8 1.5 0.9 0.9 1.1 1.7 0.5 1.7-0.5 0.1-2.8 0.2-5 0.2-3.2 0.1-4 0.5-4 2.1 0 1.4 1.2 2.4 4.4 3.5 2.4 0.9 4.9 2.2 5.4 3 0.6 0.9 0.8 2.7 0.4 4-0.3 1.7-1.7 3-3.8 3.9-2.4 1-4.3 1.2-6.3 0.5-1.6-0.4-3-1.4-3.2-2.1-0.3-0.9 0.8-1.1 3.9-0.7 2.3 0.3 4.9 0.1 5.7-0.5 1.1-0.7 1.3-1.4 0.5-2.7-0.5-0.9-2.8-2.2-5-3-2.2-0.8-4.5-2.2-5.2-3.1-0.7-1-1.3-2.1-1.2-2.5 0-0.5 1.1-1.9 2.4-3.3 1.6-1.6 3.6-2.5 5.7-2.5zm34.5 0c2.2 0 4.8 0.7 6.1 1.8 1.2 0.9 2.7 3.1 3.2 4.7 0.5 1.7 0.6 3.4 0.3 3.8-0.3 0.4-3.9 0.7-7.9 0.7-4.1 0-7.6 0.5-7.9 1-0.2 0.6 0 1.9 0.5 3 0.6 1.1 2.3 2.3 3.8 2.7 1.5 0.3 4.2 0.1 6-0.5 1.8-0.6 3.6-0.9 4-0.6 0.4 0.3-0.2 1.1-1.3 1.8-1.1 0.6-3.1 1.4-4.5 1.7-1.3 0.3-3.4 0.4-4.5 0.2-1.1-0.1-3.2-1.4-4.7-2.8-2.3-2-2.8-3.3-2.7-7 0.1-3.6 0.7-5.2 2.9-7.5 2.2-2.2 3.8-3 6.7-3zm-4.8 6.6c0.1 1 1.4 1.4 4.5 1.4 2.3 0 4.6-0.3 5-0.7 0.3-0.4-0.2-1.6-1.1-2.5-1-1-2.4-1.8-3.3-1.8-0.8 0.1-2.3 0.6-3.4 1.1-1 0.6-1.8 1.7-1.7 2.5zm22.1-6.6c0.6 0 1.1 0.6 1.3 1.2 0.2 0.9 0.8 0.9 2.5 0 1.2-0.6 3.8-1.2 5.7-1.2 2.5 0 4 0.7 5 2.3 1.1 1.5 1.5 4.7 1.5 10 0 4.3-0.3 7.8-0.7 7.8-0.4 0-1-3.4-1.3-7.5-0.4-5.9-0.9-7.8-2.5-9-1.1-0.8-3-1.5-4.2-1.5-1.4 0-3 1.1-4.3 2.9-1.4 2.2-2 4.7-2 9 0 3.4-0.4 6-1 6-0.6 0-1-4-1-10 0-6 0.4-10 1-10zm64.5 0c1.3 0 1.5 1.5 1.3 9.8-0.2 5.9-0.7 9.7-1.3 9.5-0.5-0.1-1.1-4.5-1.3-9.7-0.2-8.1 0-9.6 1.3-9.6zm8.8 0c0.7 0 2.6 3.2 4.2 7 1.7 3.9 3.3 7.1 3.5 7.1 0.3 0 1.8-3.2 3.3-7 1.7-4.4 3.3-7.1 4.2-7.1 1.1 0 1.4 0.7 0.9 2.3-0.3 1.2-2 5.6-3.7 9.7-1.7 4.1-3.7 7.5-4.4 7.7-0.7 0.2-2.9-3.2-5.3-8.2-2.2-4.6-4-9.1-4-10 0-0.8 0.6-1.5 1.3-1.5z"/>
		<path id="Path 5" class="s1" d="m163 154.7c0.8 0.2 1.7 0.2 1.9-0.1 0.2-0.3-0.4-0.6-1.5-0.5-1.4 0-1.5 0.2-0.4 0.6zm20.2 2.3c0 1.9 0.2 2.8 0.5 2 0.2-0.8 0.2-2.4 0-3.5-0.3-1.1-0.5-0.4-0.5 1.5zm-9.1 0.5c0 1.1 0.2 1.4 0.3 0.7 0.1-0.7 0.1-1.6-0.1-2-0.2-0.4-0.3 0.2-0.2 1.3zm-19.3 1.1c0.6 0.2 1.8 0.2 2.5 0 0.6-0.3 0.1-0.4-1.3-0.4-1.4 0-1.9 0.1-1.2 0.4zm6.2 0.1c0.8 0.2 1.7 0.2 1.9-0.1 0.2-0.3-0.4-0.6-1.5-0.5-1.4 0-1.5 0.2-0.4 0.6zm10.2 2.3c0 1.4 0.2 1.8 0.5 1 0.2-0.8 0.2-1.9 0-2.5-0.3-0.5-0.5 0.1-0.5 1.5zm3.9 1.5c0 1.1 0.2 1.4 0.3 0.7 0.1-0.7 0.1-1.6-0.1-2-0.2-0.4-0.3 0.2-0.2 1.3zm50.9 1.2c0.8 0.2 1.7 0.2 1.9-0.1 0.2-0.3-0.4-0.6-1.5-0.5-1.4 0-1.5 0.2-0.4 0.6zm227.5 0.3c-0.3 0.6-0.3 1.3 0 1.8 0.3 0.4 0.5 0.1 0.5-0.5 0-0.7 0.8-1.5 1.8-1.7 1.5-0.3 1.5-0.4 0-0.5-0.9 0-1.9 0.4-2.3 0.9zm25.3-0.4c1.6 0.3 2 0.9 1.6 2.2-0.5 1.5-0.4 1.5 1.1 0.2 1.3-1.2 1.3-1.7 0.3-2.2-0.7-0.4-2.2-0.7-3.3-0.6-1.7 0.1-1.6 0.1 0.3 0.4zm-311.1 2.7c0.5 1.3 0.3 2.2-0.7 2.8q-1.5 0.9-0.3 0.9c0.7 0 1.6-0.7 2-1.5 0.5-0.9 0.2-2.1-0.5-2.8-1.1-1-1.2-0.8-0.5 0.6zm67 0c0.4 0.9 1 1.5 1.3 1.2 0.3-0.3-0.1-1.1-0.8-1.8-1.1-1-1.2-0.9-0.5 0.6zm-42.7 1c-0.1 0.1 0.7 0.9 1.7 1.7 1.6 1.4 1.7 1.3 0.8-0.2-0.6-1-1.4-1.8-1.8-1.8-0.4 0-0.7 0.1-0.7 0.3zm-43 2.4c0.8 0.2 1.7 0.2 1.9-0.1 0.2-0.3-0.4-0.6-1.5-0.5-1.4 0-1.5 0.2-0.4 0.6zm7 1c0.8 0.2 1.7 0.2 1.9-0.1 0.2-0.3-0.4-0.6-1.5-0.5-1.4 0-1.5 0.2-0.4 0.6zm6 0c0.8 0.2 1.7 0.2 1.9-0.1 0.2-0.3-0.4-0.6-1.5-0.5-1.4 0-1.5 0.2-0.4 0.6zm160.6 3.8c-0.3 0.8-0.2 1.5 0.4 1.5 0.6 0 1-0.7 1-1.5 0-0.8-0.2-1.5-0.4-1.5-0.2 0-0.7 0.7-1 1.5zm106.2-0.9c0.6 0.2 1.8 0.2 2.5 0 0.6-0.3 0.1-0.4-1.3-0.4-1.4 0-1.9 0.1-1.2 0.4zm54.5 0.2c-0.4 0.4 0.5 0.7 1.9 0.7 1.4 0 2.4-0.3 2.2-0.7-0.2-0.5-1.1-0.8-1.9-0.8-0.7 0-1.7 0.3-2.2 0.8zm8.2 0.2c-0.3 0.6-0.3 1.3 0 1.8 0.3 0.4 0.5 0.1 0.5-0.5 0-0.7 0.8-1.5 1.8-1.7 1.5-0.3 1.5-0.4 0-0.5-0.9 0-1.9 0.4-2.3 0.9zm-57.5 0.3c-0.1 0.1 0.7 0.9 1.7 1.7 1.6 1.4 1.7 1.3 0.8-0.2-0.6-1-1.4-1.8-1.8-1.8-0.4 0-0.7 0.1-0.7 0.3zm-72.1 2.5c-1.3 1.6-1.3 1.6 0.4 0.2 1-0.8 1.8-1.6 1.7-1.7 0-0.2-0.2-0.3-0.4-0.3-0.2 0-1 0.8-1.7 1.8zm33.5 0.5l-1.9 2.2c3.5-3.1 4.6-4.1 4.5-4.2 0-0.2-0.2-0.3-0.4-0.3-0.1 0-1.2 1-2.2 2.3zm-59.5 0.5c-1.3 1.6-1.3 1.6 0.4 0.2 1-0.8 1.8-1.6 1.7-1.7 0-0.2-0.2-0.3-0.4-0.3-0.2 0-1 0.8-1.7 1.8zm16.1-1.5c-0.1 0.1 0.7 0.9 1.7 1.7 1.6 1.4 1.7 1.3 0.8-0.2-0.6-1-1.4-1.8-1.8-1.8-0.4 0-0.7 0.1-0.7 0.3zm-109.1 2.5c-1.3 1.6-1.3 1.6 0.4 0.2 1-0.8 1.8-1.6 1.7-1.7 0-0.2-0.2-0.3-0.4-0.3-0.2 0-1 0.8-1.7 1.8zm-61 1c-1.3 1.6-1.3 1.6 0.4 0.2 1-0.8 1.8-1.6 1.7-1.7 0-0.2-0.2-0.3-0.4-0.3-0.2 0-1 0.8-1.7 1.8zm33.1-1.5c-0.1 0.1 0.7 0.9 1.7 1.7 1.6 1.4 1.7 1.3 0.8-0.2-0.6-1-1.4-1.8-1.8-1.8-0.4 0-0.7 0.1-0.7 0.3zm145.2 2.7c0 1.4 0.2 1.8 0.5 1 0.2-0.8 0.2-1.9 0-2.5-0.3-0.5-0.5 0.1-0.5 1.5zm58.1 5c0 4.1 0.2 5.9 0.4 4 0.2-1.9 0.2-5.3 0-7.5-0.2-2.2-0.4-0.6-0.4 3.5zm-134 2.5c0 3.9 0.2 5.2 0.4 3 0.2-2.2 0.2-5.3 0-7-0.2-1.6-0.4 0.2-0.4 4zm149-0.5c0 3.6 0.2 4.9 0.4 3 0.2-1.9 0.2-4.8 0-6.5-0.2-1.6-0.4-0.1-0.4 3.5zm-159 1c0 3.6 0.2 4.9 0.4 3 0.2-1.9 0.2-4.8 0-6.5-0.2-1.6-0.4-0.1-0.4 3.5zm58.9-3.5c0 1.9 0.2 2.3 0.5 1 0.2-1.1 0.2-2.4-0.1-3-0.2-0.5-0.4 0.4-0.4 2zm80.9-1c0 1.1 0.2 1.4 0.3 0.7 0.1-0.7 0.1-1.6-0.1-2-0.2-0.4-0.3 0.2-0.2 1.3zm9 0c0 1.1 0.2 1.4 0.3 0.7 0.1-0.7 0.1-1.6-0.1-2-0.2-0.4-0.3 0.2-0.2 1.3zm96 0c0 1.1 0.2 1.4 0.3 0.7 0.1-0.7 0.1-1.6-0.1-2-0.2-0.4-0.3 0.2-0.2 1.3zm-145.1-0.2c-0.1 0.1 0.7 0.9 1.7 1.7 1.6 1.4 1.7 1.3 0.8-0.2-0.6-1-1.4-1.8-1.8-1.8-0.4 0-0.7 0.1-0.7 0.3zm-137.8 3.7c0 1.4 0.2 1.8 0.5 1 0.2-0.8 0.2-1.9 0-2.5-0.3-0.5-0.5 0.1-0.5 1.5zm-6.1 0.5c0 1.1 0.2 1.4 0.3 0.7 0.1-0.7 0.1-1.6-0.1-2-0.2-0.4-0.3 0.2-0.2 1.3zm167.9-0.7c0 0.4 1.4 0.6 3 0.5 1.7-0.2 3-0.5 3-0.8 0-0.3-1.4-0.5-3-0.5-1.6 0-3 0.3-3 0.8zm12-0.1c0.8 0.2 1.7 0.2 1.9-0.1 0.2-0.3-0.4-0.6-1.5-0.5-1.4 0-1.5 0.2-0.4 0.6zm-258.1 2.1c-1.3 1.6-1.3 1.6 0.4 0.2 1-0.8 1.8-1.6 1.7-1.7 0-0.2-0.2-0.3-0.4-0.3-0.2 0-1 0.8-1.7 1.8zm271.3 1.7c0 1.9 0.2 2.3 0.5 1 0.2-1.1 0.2-2.4-0.1-3-0.2-0.5-0.4 0.4-0.4 2zm-236.3 1.3l-2.4 2.7c4.3-3.9 5.5-5.1 5.5-5.2 0-0.2-0.1-0.3-0.3-0.3-0.2 0-1.5 1.2-2.8 2.8zm337.9-1.2c0.6 0.2 1.8 0.2 2.5 0 0.6-0.3 0.1-0.4-1.3-0.4-1.4 0-1.9 0.1-1.2 0.4zm-282.8 0.7c-0.1 0.1 0.7 0.9 1.7 1.7 1.6 1.4 1.7 1.3 0.8-0.2-0.6-1-1.4-1.8-1.8-1.8-0.4 0-0.7 0.1-0.7 0.3zm117.9 0.2c0 0.6 0.8 1.7 1.8 2.5 1.7 1.4 1.7 1.4 0.3-0.5-0.8-1.1-1.6-2.2-1.7-2.5-0.2-0.3-0.4 0-0.4 0.5zm-145.9 1.5c0 0.6 0.5 1.2 1 1.5 0.6 0.3 0.8-0.2 0.6-1-0.3-0.8-0.7-1.5-1-1.5-0.3 0-0.6 0.5-0.6 1zm55 1c0 0.6 0.5 1.2 1 1.5 0.6 0.3 0.8-0.2 0.6-1-0.3-0.8-0.7-1.5-1-1.5-0.3 0-0.6 0.5-0.6 1zm230.6 0.3c0.2 0.4 1.3 0.7 2.4 0.7 1.1 0 2.2-0.3 2.4-0.7 0.2-0.5-0.9-0.8-2.4-0.8-1.5 0-2.6 0.3-2.4 0.8zm-176 1c0.2 0.4 1.3 0.7 2.4 0.7 1.1 0 2.2-0.3 2.4-0.7 0.2-0.5-0.9-0.8-2.4-0.8-1.5 0-2.6 0.3-2.4 0.8zm-156.6 2.2c1.4 1.4 2.7 2.6 3 2.6 0.3 0-0.4-1.2-1.6-2.6-1.2-1.4-2.5-2.5-3-2.5-0.5 0 0.2 1.1 1.6 2.5zm235.2-1.8c0.9 0.2 2.2 0.2 3 0 0.7-0.3 0-0.5-1.7-0.5-1.6 0-2.3 0.2-1.3 0.5zm-152.2 1c0.8 0.2 1.7 0.2 1.9-0.1 0.2-0.3-0.4-0.6-1.5-0.5-1.4 0-1.5 0.2-0.4 0.6zm-26.8 1c0.9 0.2 2.2 0.2 3 0 0.7-0.3 0-0.5-1.7-0.5-1.6 0-2.3 0.2-1.3 0.5z"/>
		<path id="Path 6" class="s2" d="m167.3 153.7c-4 2-5.8 2.3-10.8 1.9-5.5-0.5-5.8-0.4-4 0.9 1.1 0.9 3.8 1.5 6 1.5 2.2 0 6-0.9 8.5-2.1 2.5-1.1 4.6-1.9 4.7-1.9 0.2 0 0.3 1.9 0.3 4.3 0 2.3 0.9 6.1 2 8.5 1.1 2.3 2.4 4.4 3 4.7 0.6 0.3 1.3 0.3 1.7 0 0.5-0.3-0.1-1.5-1.2-2.6-1.2-1.3-2.7-5.5-3.7-9.9l-1.6-7.7zm17.2 1.3c-0.4 0.8-0.5 2.9-0.2 4.5 0.3 1.7 2.2 4.9 4.1 7.3 2 2.3 3.4 4.5 3.2 5-0.2 0.4-1.8 1-3.5 1.5-1.7 0.4-5.1 2.5-7.4 4.7-2.3 2.2-3.9 4.3-3.5 4.8 0.4 0.4 2-0.6 3.6-2.3 1.6-1.6 4.8-4 7.2-5.2 2.5-1.2 5.3-2.5 6.4-2.8 1.9-0.6 1.9-0.8-0.8-2.8-1.6-1.2-3.7-3.5-4.7-5.2-1-1.6-2.2-4.8-2.7-7-0.6-2.9-1.1-3.6-1.7-2.5zm-38.8 10.4c0.1 0 0 3.3-0.1 7.1-0.1 4.8-0.7 7.8-1.9 9.5-1 1.4-1.8 2.8-1.8 3.3 0 0.4 0.5 0.7 1 0.7 0.6 0 2-1.9 3.2-4.2 1.6-3.4 2-5.3 1.5-9l-0.7-4.8c5.9 1.2 10.1 1.5 13.2 1.5 3.2 0 6.3-0.5 7-1.2 0.8-0.7 1.1-1.5 0.8-1.8-0.2-0.3-2.5 0-5 0.7-3.6 0.9-5.6 0.8-10.8-0.4-3.6-0.9-6.4-1.5-6.4-1.4zm12.2 12.6c0 1.7-0.7 4.5-1.6 6.3-0.9 1.7-2.8 4.7-4.2 6.6-2.2 2.8-2.4 3.5-1.2 4.2 0.9 0.5 2.6 0.9 3.8 0.9 1.2 0 3.9 0.8 5.9 1.8 2 0.9 4.7 2.9 6 4.5 1.3 1.5 2.6 2.7 2.8 2.7 0.3 0 0.6-0.6 0.6-1.2 0-0.7-1.3-2.6-2.9-4.3-2-2-4.7-3.4-8.6-4.2l-5.6-1.3c4.7-7.5 6.2-11.5 6.5-14.2 0.3-2.9 0.2-4.8-0.4-4.8-0.6 0-1.1 1.4-1.1 3zm120.8 0.6c0.7 0.2 1.8 0.2 2.5 0 0.7-0.2 0.1-0.4-1.3-0.4-1.3 0-1.9 0.2-1.2 0.4zm6.6 10.4c0 3.6 0.2 4.9 0.4 3 0.2-1.9 0.2-4.8 0-6.5-0.2-1.6-0.4-0.1-0.4 3.5zm148.8-4c0 1.4 0.2 1.8 0.5 1 0.3-0.8 0.3-1.9 0-2.5-0.3-0.5-0.5 0.1-0.5 1.5zm-193 1c0 1.4 0.2 1.8 0.5 1 0.3-0.8 0.3-1.9 0-2.5-0.3-0.5-0.5 0.1-0.5 1.5zm32.2 3.5c0 3.3 0.2 4.4 0.4 2.5 0.2-1.9 0.2-4.6 0-6-0.3-1.4-0.4 0.2-0.4 3.5zm-108.3-3.6c0 0.6 1.4 1.7 3.2 2.4 1.8 0.8 5.3 3.8 7.9 6.8l4.6 5.4c4.8-7.4 7.7-10.4 9.5-11.5 1.8-1.1 4-2 5-2 1 0 1.7-0.4 1.7-1 0-0.5-0.9-1-2-1-1.1 0-3.3 0.7-5 1.5-1.6 0.8-4.3 3.6-6.1 6.3l-3.1 4.7c-4.8-6-7.4-8.6-8.8-9.5-1.3-1-3.4-2-4.6-2.4-1.3-0.4-2.2-0.3-2.3 0.3zm70 1.6c0.1 1.1 0.2 1.4 0.3 0.7 0.2-0.7 0.1-1.6-0.1-2-0.1-0.4-0.3 0.2-0.2 1.3zm-4 1c0.1 1.1 0.2 1.4 0.3 0.7 0.2-0.7 0.1-1.6-0.1-2-0.1-0.4-0.3 0.2-0.2 1.3zm203.1 2.5c0 1.4 0.2 1.8 0.5 1 0.3-0.8 0.3-1.9 0-2.5-0.3-0.5-0.5 0.1-0.5 1.5zm-201.3 2.8c-1.2 1.6-1.2 1.6 0.4 0.2 1-0.8 1.8-1.6 1.8-1.7 0-0.2-0.2-0.3-0.4-0.3-0.3 0-1 0.8-1.8 1.8zm-10.1 3.8c0.7 0.2 1.8 0.2 2.5 0 0.7-0.2 0.1-0.4-1.3-0.4-1.3 0-1.9 0.2-1.2 0.4z"/>
		<path id="Path 7" class="s4" d="m186.2 156c0 1.4 0.2 1.8 0.5 1 0.2-0.8 0.2-1.9 0-2.5-0.3-0.6-0.5 0.1-0.5 1.5zm-29-0.3c0.9 0.2 2.2 0.2 3 0 0.7-0.3 0-0.5-1.7-0.5-1.6 0-2.3 0.2-1.3 0.5zm13.9 1.8c0 1.1 0.2 1.4 0.3 0.7 0.1-0.7 0.1-1.6-0.1-2-0.2-0.4-0.3 0.2-0.2 1.3zm157.3 18.5c0 6.9 0.1 9.6 0.3 6 0.2-3.6 0.2-9.2 0-12.5-0.2-3.3-0.3-0.4-0.3 6.5zm153.7-9.5c0 1.1 0.2 1.4 0.3 0.7 0.1-0.7 0.1-1.6-0.1-2-0.2-0.4-0.3 0.2-0.2 1.3zm-293 2.1c1.3 1.7 2.6 3 2.9 2.7 0.3-0.2-0.8-1.6-2.4-3.1l-2.9-2.7zm296.4 0.4c-1.7 0.7-1.8 0.9-0.3 0.9 1 0.1 2-0.4 2.2-0.9 0.3-0.6 0.4-1 0.3-0.9-0.1 0-1.1 0.4-2.2 0.9zm-326.5 1.6c0.8 0.3 1.7 0.3 1.9 0 0.2-0.4-0.4-0.6-1.5-0.5-1.4 0-1.5 0.2-0.4 0.5zm15.9-0.4c0 0.2 0.8 1 1.8 1.8 1.6 1.3 1.7 1.3 0.8-0.3-0.6-0.9-1.4-1.7-1.8-1.7-0.4 0-0.7 0.1-0.8 0.2zm-29.7 3.3c0 1.9 0.2 2.2 0.5 1 0.2-1.1 0.2-2.5-0.1-3-0.2-0.6-0.4 0.3-0.4 2zm69 0c0 1.9 0.2 2.2 0.5 1 0.2-1.1 0.2-2.5-0.1-3-0.2-0.6-0.4 0.3-0.4 2zm-66.1 2.5c0 1.4 0.3 1.8 0.5 1 0.3-0.8 0.3-2 0-2.5-0.2-0.6-0.5 0.1-0.5 1.5zm11.6 0.5c0.5 2.3 0.8 2.5 1 1 0.2-1.1 0-2.5-0.6-3-0.7-0.7-0.8-0.1-0.4 2zm92.3-1.9c0.8 0.3 1.7 0.3 1.9 0 0.2-0.4-0.4-0.6-1.5-0.5-1.4 0-1.5 0.2-0.4 0.5zm27.7 0c0.7 0.2 1.8 0.2 2.5 0 0.7-0.3 0.2-0.5-1.2-0.5-1.4 0-2 0.2-1.3 0.5zm18.3 0c0.8 0.3 1.7 0.3 1.9 0 0.2-0.4-0.4-0.6-1.5-0.5-1.4 0-1.5 0.2-0.4 0.5zm123.5 0.4c1.1 0.5 2.4 0.9 3 0.9 0.5 0 0.3-0.4-0.5-0.9-0.8-0.6-2.2-1-3-0.9q-1.5 0 0.5 0.9zm-242.1 3.2l-2.9 3.3c5.1-4.7 6.5-6.1 6.5-6.3 0-0.1-0.2-0.2-0.3-0.2-0.2 0-1.7 1.4-3.3 3.2zm91.6-2.7c0 0.3 0.9 0.7 2 1 1.1 0.3 1.8 0.1 1.5-0.5-0.3-0.6-1.2-1-2-1-0.8 0-1.5 0.2-1.5 0.5zm212.4 9c0 5.5 0.1 7.5 0.3 4.5 0.2-3 0.2-7.5 0-10-0.2-2.5-0.4 0-0.3 5.5zm4 0c0 5.5 0.1 7.5 0.3 4.5 0.2-3 0.2-7.5 0-10-0.2-2.5-0.4 0-0.3 5.5zm-330.4-7c0.1 1.1 0.3 1.4 0.4 0.7 0.1-0.8 0.1-1.7-0.1-2-0.2-0.4-0.3 0.2-0.3 1.3zm138.4 8c0 5.5 0.1 7.5 0.3 4.5 0.2-3 0.2-7.5 0-10-0.2-2.5-0.4 0-0.3 5.5zm-35.5-8.3c0 0.2 0.8 1 1.8 1.8 1.6 1.3 1.7 1.3 0.8-0.3-0.6-0.9-1.4-1.7-1.8-1.7-0.4 0-0.7 0.1-0.8 0.2zm9.3 3.3c0.1 2.4 0.2 3 0.5 1.5 0.2-1.4 0.2-3.2 0-4-0.3-0.8-0.5 0.3-0.5 2.5zm31.1 5c0 4.9 0.2 7.2 0.4 5 0.2-2.2 0.2-6.3 0-9-0.2-2.8-0.4-1-0.4 4zm-120.8-3.5c-0.3 0.5-1.3 0.7-2.3 0.4-1.4-0.4-1.5-0.3-0.5 0.8 1.1 1 1.6 1 3-0.5 0.9-0.9 1.4-1.7 1-1.7-0.3 0-0.9 0.4-1.2 1zm109.5 7.2c-0.3 4.2-0.2 7.4 0.3 7 0.4-0.4 0.6-3.9 0.4-7.7l-0.2-7zm-24.8-3.2c0 1.9 0.2 2.8 0.5 2 0.2-0.8 0.2-2.4 0-3.5-0.3-1.1-0.5-0.4-0.5 1.5zm40.8-0.5c0.1 1.1 0.2 1.4 0.4 0.7 0.1-0.8 0.1-1.7-0.1-2-0.2-0.4-0.3 0.2-0.3 1.3zm-35.7 4c0 2.8 0.2 3.7 0.4 2 0.2-1.7 0.2-3.9 0-5-0.3-1.1-0.4 0.2-0.4 3zm-83.4-0.8l-2.4 2.8c4.3-3.9 5.5-5.1 5.5-5.3 0-0.1-0.2-0.2-0.4-0.2-0.1 0-1.4 1.2-2.7 2.7zm280.1-1.7c0 0.5 0.4 1 1 1 0.5 0 0.8-0.5 0.5-1-0.3-0.6-0.7-1-1-1-0.3 0-0.5 0.4-0.5 1zm-28.9 3.7c-0.1 2.4-0.7 4.5-1.4 4.7-1 0.3-1 0.4 0 0.5 0.7 0 1.5-0.5 1.8-1.2 0.3-0.7 0.4-2.8 0.2-4.7-0.4-3.3-0.4-3.3-0.6 0.7zm-39.2-1.5c0 0.2 0.8 1 1.8 1.8 1.6 1.3 1.7 1.3 0.7-0.3-0.5-0.9-1.3-1.7-1.7-1.7-0.4 0-0.7 0.1-0.8 0.2zm-222 2c0 0.2 0.8 1 1.8 1.8 1.6 1.3 1.7 1.3 0.7-0.3-0.5-0.9-1.3-1.7-1.7-1.7-0.4 0-0.7 0.1-0.8 0.2zm160.6 1.8c1.1 1.1 2.2 2 2.5 2 0.3 0-0.2-0.9-1.1-2-0.9-1.1-2-2-2.5-2.1-0.5 0 0 0.9 1.1 2.1zm57.4-1.8c0 0.2 0.8 1 1.8 1.8 1.6 1.3 1.7 1.3 0.7-0.3-0.5-0.9-1.3-1.7-1.7-1.7-0.4 0-0.7 0.1-0.8 0.2zm17.7 1.5c-0.6 1.4-0.5 1.5 0.6 0.5 0.7-0.6 1-1.4 0.7-1.7-0.3-0.4-0.8 0.2-1.3 1.2zm-104.7-0.5c0 0.2 0.8 1 1.8 1.8 1.6 1.3 1.7 1.3 0.7-0.3-0.5-0.9-1.3-1.7-1.7-1.7-0.4 0-0.7 0.1-0.8 0.2zm60.1 0.4c0.8 0.3 1.7 0.3 1.9 0 0.2-0.4-0.5-0.6-1.5-0.5-1.4 0-1.5 0.2-0.4 0.5zm-193.1 0.6c0 0.2 0.8 1 1.8 1.8 1.6 1.3 1.7 1.3 0.7-0.3-0.5-0.9-1.3-1.7-1.7-1.7-0.4 0-0.7 0.1-0.8 0.2zm48.2 0.5c0.9 0.2 2.3 0.2 3-0.1 0.8-0.2 0-0.4-1.6-0.4-1.7 0-2.3 0.2-1.4 0.5zm242.5 1.5c0.2 0.4 1.3 0.8 2.4 0.8 1.1 0 2.2-0.4 2.4-0.8 0.2-0.4-0.9-0.7-2.4-0.7-1.6 0-2.7 0.3-2.4 0.7zm-309.6 1.4c0.8 0.3 1.7 0.3 1.9 0 0.2-0.4-0.5-0.6-1.5-0.5-1.4 0-1.5 0.2-0.4 0.5zm188.7 0c0.7 0.2 1.8 0.2 2.5 0 0.7-0.3 0.2-0.5-1.2-0.5-1.4 0-2 0.2-1.3 0.5zm23 0c0.7 0.2 1.8 0.2 2.5 0 0.7-0.3 0.2-0.5-1.2-0.5-1.4 0-2 0.2-1.3 0.5zm-203.8 2.6c0 0.2 0.8 1 1.8 1.8 1.6 1.3 1.7 1.3 0.7-0.3-0.5-0.9-1.3-1.7-1.7-1.7-0.4 0-0.7 0.1-0.8 0.2zm6.6 4.3c0 1.2 0.3 2.1 0.7 1.9 0.4-0.2 0.8-1.1 0.9-1.9 0-0.8-0.3-1.6-0.8-1.9-0.4-0.2-0.8 0.6-0.8 1.9z"/>
		<path id="Path 8" class="s3" d="m173.2 154c0 1.4 0.2 1.8 0.5 1 0.2-0.8 0.2-1.9 0-2.5-0.3-0.6-0.5 0.1-0.5 1.5zm10.8 0c0 0.6 0.4 0.8 1 0.5 0.6-0.3 1-0.7 1-1 0-0.3-0.4-0.5-1-0.5-0.6 0-1 0.4-1 1zm-13.6 1c0.3 0.6 0.8 1 1.1 1 0.3 0 0.5-0.4 0.5-1 0-0.6-0.5-1-1.1-1-0.6 0-0.8 0.4-0.5 1zm125.6 10.2c-0.8 0.7-1.3 1.8-1.2 2.5 0.1 0.7 0.7 1.5 1.2 1.8 0.6 0.3 0.8-0.2 0.5-1-0.3-0.8 0-2.2 0.6-3 0.6-0.8 0.9-1.5 0.7-1.5-0.2 0-1 0.5-1.8 1.2zm28.3 4.3c0 3.3 0.2 4.4 0.4 2.5 0.2-1.9 0.2-4.6 0-6-0.2-1.4-0.4 0.2-0.4 3.5zm-167.5-1.8c1.3 0.2 3.1 0.2 4 0 0.9-0.3-0.1-0.5-2.3-0.4-2.2 0-3 0.2-1.7 0.4zm-11.7 1.8c0 1.1 0.2 1.4 0.3 0.7 0.1-0.7 0.1-1.6-0.1-2-0.2-0.4-0.3 0.2-0.2 1.3zm2.1 0.5c0 1.4 0.2 1.8 0.5 1 0.2-0.8 0.2-1.9 0-2.5-0.3-0.6-0.5 0.1-0.5 1.5zm79.8-1.3c0.8 0.2 1.7 0.2 1.9-0.1 0.2-0.3-0.4-0.6-1.5-0.5-1.4 0-1.5 0.2-0.4 0.6zm-7.9 3.8c0 1.1 0.2 1.4 0.3 0.7 0.1-0.7 0.1-1.6-0.1-2-0.2-0.4-0.3 0.2-0.2 1.3zm125.9 2.2c0.8 0.2 1.7 0.2 1.9-0.1 0.2-0.3-0.4-0.6-1.5-0.5-1.4 0-1.5 0.2-0.4 0.6zm22.8-0.1c0.6 0.2 1.8 0.2 2.5 0 0.6-0.3 0.1-0.4-1.3-0.4-1.4 0-1.9 0.1-1.2 0.4zm34.7 0.1c1.1 0.2 2.7 0.2 3.5 0 0.8-0.3-0.1-0.5-2-0.5-1.9 0-2.6 0.2-1.5 0.5zm26 0c1.1 0.2 2.7 0.2 3.5 0 0.8-0.3-0.1-0.5-2-0.5-1.9 0-2.6 0.2-1.5 0.5zm80.5-0.2c0 0.3 0.7 0.7 1.5 1 0.8 0.3 1.3 0.1 1-0.5-0.3-0.6-0.9-1-1.5-1-0.6 0-1 0.2-1 0.5zm-113.1 3.3l-2.4 2.7c4.3-3.9 5.5-5.1 5.5-5.2 0-0.2-0.1-0.3-0.3-0.3-0.2 0-1.5 1.2-2.8 2.8zm23.5 7.2c0.1 8.6 0.4 10.5 1.6 10.5 1.2 0 1.5-1.4 1.6-6.5l0.1-6.5c-0.5 9.7-1.1 12.5-1.7 12.5-0.6 0-1.1-4.3-1.3-10.2l-0.3-10.3zm14.5-9.7c0 0.1 0.8 0.9 1.7 1.7 1.7 1.4 1.7 1.3 0.8-0.2-0.6-1-1.3-1.8-1.7-1.8-0.4 0-0.8 0.1-0.8 0.3zm-190.6 4l-1.9 2.2c3.6-3.1 4.6-4.1 4.6-4.3 0-0.1-0.2-0.2-0.4-0.2-0.2 0-1.2 1-2.3 2.3zm108.6-2c0 0.1 0.8 0.9 1.7 1.7 1.7 1.4 1.7 1.3 0.8-0.2-0.6-1-1.3-1.8-1.7-1.8-0.4 0-0.8 0.1-0.8 0.3zm75.8 0.3c0.7 0.2 1.8 0.2 2.5 0 0.7-0.3 0.1-0.4-1.3-0.4-1.3 0-1.9 0.1-1.2 0.4zm93.1 1.2c-1.2 1.6-1.2 1.6 0.4 0.2 1-0.8 1.8-1.6 1.8-1.7 0-0.2-0.2-0.3-0.4-0.3-0.3 0-1 0.8-1.8 1.8zm-304.9-0.5c0 0.1 0.8 0.9 1.7 1.7 1.7 1.4 1.7 1.3 0.8-0.2-0.6-1-1.3-1.8-1.7-1.8-0.4 0-0.8 0.1-0.8 0.3zm149.3 1.2c-0.4 0.9-0.3 2 0.2 2.5 0.7 0.6 1 0 1-1.6 0-1.3-0.1-2.4-0.2-2.4-0.2 0-0.6 0.7-1 1.5zm-208.2 1c0.1 1.1 0.2 1.4 0.3 0.7 0.2-0.7 0.1-1.6-0.1-2-0.2-0.4-0.3 0.2-0.2 1.3zm256 2c0.1 1.1 0.2 1.4 0.3 0.7 0.2-0.7 0.1-1.6-0.1-2-0.2-0.4-0.3 0.2-0.2 1.3zm24.2 1.5c0 1.9 0.2 2.8 0.4 2 0.3-0.8 0.3-2.4 0-3.5-0.2-1.1-0.4-0.4-0.4 1.5zm-44 1c0 1.9 0.2 2.8 0.4 2 0.3-0.8 0.3-2.4 0-3.5-0.2-1.1-0.4-0.4-0.4 1.5zm138.9-0.5c0.1 1.9 0.2 2.3 0.5 1 0.3-1.1 0.2-2.4 0-3-0.3-0.6-0.5 0.3-0.5 2zm-336 0.9c0.7 0.8 1.5 1.2 1.6 1 0.1-0.2 0-0.8-0.3-1.4-0.2-0.6-0.9-1-1.5-1-0.7 0-0.6 0.6 0.2 1.4zm159.9 0.1c0.1 1.1 0.2 1.4 0.3 0.7 0.2-0.7 0.1-1.6-0.1-2-0.2-0.4-0.3 0.2-0.2 1.3zm-192.1 0.5c0 0.6 0.5 1.2 1 1.5 0.6 0.3 0.9-0.2 0.6-1-0.2-0.8-0.7-1.5-1-1.5-0.3 0-0.6 0.4-0.6 1zm233.5 0.7c-0.4 0.3-0.7 1.1-0.6 1.7q0.2 1.1 0.9-0.1c0.4-0.7 3.9-1.3 8.2-1.5l7.5-0.4c-11.7-0.3-15.5-0.1-16 0.3zm-26.3 2c0.7 1.2 1.6 2 1.8 1.7 0.3-0.2-0.3-1.2-1.3-2.2-1.8-1.6-1.8-1.6-0.5 0.5zm-43 1.8c0.1 1.9 0.2 2.3 0.5 1 0.3-1.1 0.2-2.4 0-3-0.3-0.6-0.5 0.3-0.5 2zm191.8-1.2c0 0.1 0.8 0.9 1.7 1.7 1.7 1.4 1.7 1.3 0.8-0.2-0.6-1-1.3-1.8-1.7-1.8-0.4 0-0.8 0.1-0.8 0.3zm9.9 1.5c-1.2 1.6-1.2 1.6 0.4 0.2 1-0.8 1.8-1.6 1.8-1.7 0-0.2-0.2-0.3-0.4-0.3-0.3 0-1 0.8-1.8 1.8zm-121.5 0.1c-0.3 0.5 0.3 0.7 1.5 0.5 1.2-0.2 2.1-0.6 2.1-0.9 0-0.3-0.6-0.5-1.4-0.5-0.8 0-1.8 0.4-2.2 0.9zm-222.5 1.9c-1.2 1.6-1.2 1.6 0.4 0.2 1-0.8 1.8-1.6 1.8-1.7 0-0.2-0.2-0.3-0.4-0.3-0.3 0-1 0.8-1.8 1.8zm167 0c-1.2 1.6-1.2 1.6 0.4 0.2 1-0.8 1.8-1.6 1.8-1.7 0-0.2-0.2-0.3-0.4-0.3-0.3 0-1 0.8-1.8 1.8zm49.1-0.1c0.9 0.2 1.7 0.2 2-0.1 0.2-0.3-0.5-0.6-1.5-0.5-1.4 0-1.5 0.2-0.5 0.6zm-130.9 3.8q0.9 1 1.9 0 1-1.1-0.9-1c-1.3 0-1.6 0.4-1 1zm44.7 0.1c0.7 0.2 1.8 0.2 2.5 0 0.7-0.3 0.1-0.4-1.3-0.4-1.3 0-1.9 0.1-1.2 0.4z"/>
		<path id="Path 9" class="s1" d="m406 178.3c-0.1 0.1 0.7 0.9 1.7 1.7 1.6 1.4 1.7 1.3 0.8-0.3-0.6-0.9-1.4-1.7-1.8-1.7-0.4 0-0.7 0.1-0.7 0.2zm-94.1 2.5c-1.3 1.7-1.3 1.7 0.4 0.3 1-0.8 1.8-1.6 1.7-1.8 0-0.1-0.2-0.2-0.4-0.2-0.2 0-1 0.8-1.7 1.7zm11.3 4.8c0 1.9 0.2 2.3 0.5 1 0.2-1.1 0.2-2.4-0.1-3-0.2-0.6-0.4 0.3-0.4 2zm28 0c0 1.9 0.2 2.3 0.5 1 0.2-1.1 0.2-2.4-0.1-3-0.2-0.6-0.4 0.3-0.4 2zm-41 0.5c0 1.4 0.2 1.8 0.5 1 0.2-0.8 0.2-1.9 0-2.5-0.3-0.6-0.5 0.1-0.5 1.5zm5.5 6.6c0.7 0.2 1.9 0.2 2.5 0 0.7-0.3 0.2-0.4-1.2-0.4-1.4 0-1.9 0.1-1.3 0.4zm28 0c0.7 0.2 1.9 0.2 2.5 0 0.7-0.3 0.2-0.4-1.2-0.4-1.4 0-1.9 0.1-1.3 0.4z"/>
		<path id="Path 10" class="s2" d="m352.2 185c0 1.4 0.2 1.8 0.5 1 0.2-0.8 0.2-1.9 0-2.5-0.3-0.6-0.5 0.1-0.5 1.5zm-28.1 0.5c0 1.1 0.2 1.4 0.3 0.7 0.1-0.7 0.1-1.6-0.1-2-0.2-0.4-0.3 0.2-0.2 1.3z"/>
		<path id="Path 11" class="s4" d="m403 177.7c0.8 0.2 1.7 0.2 1.9-0.1 0.2-0.3-0.4-0.6-1.5-0.5-1.4 0-1.5 0.2-0.4 0.6zm-4.1 2.1c-1.3 1.6-1.3 1.6 0.4 0.2 1-0.8 1.8-1.6 1.7-1.7 0-0.2-0.2-0.3-0.4-0.3-0.2 0-1 0.8-1.7 1.8zm-153.7 6.7c0 1.9 0.2 2.3 0.5 1 0.2-1.1 0.2-2.4-0.1-3-0.2-0.6-0.4 0.4-0.4 2zm14-0.5c0 1.4 0.2 1.8 0.5 1 0.2-0.8 0.2-1.9 0-2.5-0.3-0.6-0.5 0.1-0.5 1.5zm-13.2 4.3c-0.1 0.1 0.7 0.9 1.7 1.7 1.6 1.4 1.7 1.3 0.8-0.2-0.6-1-1.4-1.8-1.8-1.8-0.4 0-0.7 0.1-0.7 0.3zm10.9 1.5c-1.3 1.6-1.3 1.6 0.4 0.2 1-0.8 1.8-1.6 1.7-1.7 0-0.2-0.2-0.3-0.4-0.3-0.2 0-1 0.8-1.7 1.8zm-5.7 1.9c0.9 0.2 2.2 0.2 3 0 0.7-0.3-0.1-0.5-1.7-0.5-1.7 0-2.3 0.2-1.3 0.5z"/>
		<path id="Path 12" class="s3" d="m405 177.5c0 0.3 0.7 0.7 1.5 1 0.8 0.3 1.3 0.1 1-0.5-0.3-0.6-0.9-1-1.5-1-0.6 0-1 0.2-1 0.5zm-66.1 3.3c-1.3 1.6-1.3 1.6 0.4 0.2 1-0.8 1.8-1.6 1.7-1.7 0-0.2-0.2-0.3-0.4-0.3-0.2 0-1 0.8-1.7 1.8zm70.1 0.5c0 1.4-0.9 1.7-5.5 1.7-3 0-5.6-0.3-5.8-0.7-0.2-0.5-0.3-0.4-0.2 0.2 0.1 0.6 2.7 1.1 5.8 1.3 4.5 0.1 5.8-0.1 6-1.3 0.1-0.9 0.1-1.9 0-2.3-0.2-0.4-0.3 0.1-0.3 1z"/>
	</g>
</svg>